<svg width="24" height="24" viewBox="0 0 24 24" fill="none" xmlns="http://www.w3.org/2000/svg">
<path d="M1 11.2498C1.00124 10.0567 1.47574 8.91287 2.31939 8.06923C3.16303 7.22558 4.30691 6.75108 5.5 6.74984H9.23125C9.50406 6.7339 14.2581 6.39921 18.7853 2.60234C19.0039 2.41873 19.2704 2.30132 19.5534 2.26391C19.8365 2.2265 20.1243 2.27064 20.3831 2.39114C20.6419 2.51163 20.861 2.70349 21.0145 2.94417C21.1681 3.18484 21.2498 3.46434 21.25 3.74984V18.7498C21.25 19.0354 21.1684 19.315 21.0149 19.5558C20.8614 19.7967 20.6424 19.9887 20.3835 20.1093C20.1247 20.2299 19.8368 20.2741 19.5537 20.2367C19.2706 20.1994 19.004 20.0819 18.7853 19.8983C15.2444 16.9283 11.5666 16.077 10 15.8389V18.8126C10.0003 19.0598 9.93954 19.3032 9.82309 19.5213C9.70664 19.7393 9.53811 19.9252 9.3325 20.0623L8.30125 20.7495C8.10192 20.8826 7.87362 20.9659 7.63546 20.9926C7.3973 21.0193 7.15622 20.9885 6.93241 20.9028C6.70859 20.8172 6.50855 20.6791 6.34904 20.5003C6.18954 20.3214 6.07521 20.107 6.01562 19.8748L4.91219 15.7161C3.82963 15.572 2.83621 15.0398 2.11662 14.2183C1.39702 13.3968 1.00023 12.3419 1 11.2498ZM19.75 18.7433V3.74984C15.7366 7.1164 11.6284 7.96859 10 8.17859V14.3173C11.6266 14.5311 15.7337 15.3814 19.75 18.7433ZM7.46875 19.4933V19.5036L8.5 18.8164V15.7498H6.475L7.46875 19.4933ZM5.5 14.2498H8.5V8.24984H5.5C4.70435 8.24984 3.94129 8.56591 3.37868 9.12852C2.81607 9.69112 2.5 10.4542 2.5 11.2498C2.5 12.0455 2.81607 12.8085 3.37868 13.3712C3.94129 13.9338 4.70435 14.2498 5.5 14.2498Z" fill="white"/>
</svg>