<svg width="24" height="24" viewBox="0 0 24 24" fill="none" xmlns="http://www.w3.org/2000/svg">
<path d="M20.986 4.41739C20.9638 4.05169 20.8085 3.70678 20.5494 3.44772C20.2904 3.18865 19.9454 3.03336 19.5797 3.01114C18.4004 2.94082 15.3863 3.04864 12.8851 5.54895L12.4397 5.99989H6.9713C6.77356 5.99877 6.57758 6.03699 6.39474 6.11231C6.21191 6.18763 6.04588 6.29856 5.9063 6.43864L2.69068 9.65614C2.49347 9.85321 2.35509 10.1013 2.29107 10.3727C2.22704 10.644 2.23991 10.9278 2.32821 11.1923C2.41652 11.4567 2.57678 11.6913 2.79101 11.8697C3.00523 12.0482 3.26494 12.1634 3.54099 12.2024L7.14755 12.7058L11.2922 16.8505L11.7957 20.459C11.8344 20.735 11.9496 20.9947 12.1281 21.2088C12.3067 21.4228 12.5416 21.5827 12.8063 21.6702C12.9605 21.7217 13.1219 21.748 13.2844 21.748C13.4812 21.7484 13.6761 21.7098 13.858 21.6345C14.0398 21.5592 14.2049 21.4487 14.3438 21.3093L17.5613 18.0936C17.7014 17.9541 17.8123 17.788 17.8876 17.6052C17.963 17.4224 18.0012 17.2264 18.0001 17.0286V11.5602L18.4472 11.113C20.9485 8.61176 21.0563 5.5977 20.986 4.41739ZM6.9713 7.49989H10.9397L7.2338 11.2049L3.75005 10.7193L6.9713 7.49989ZM13.9472 6.61395C14.6679 5.88883 15.535 5.32583 16.4907 4.96256C17.4463 4.59929 18.4684 4.44411 19.4888 4.50739C19.5545 5.52831 19.401 6.55147 19.0384 7.5081C18.6759 8.46474 18.1128 9.3327 17.3869 10.0536L12.0001 15.4386L8.5613 11.9999L13.9472 6.61395ZM16.5001 17.0286L13.2816 20.2499L12.7951 16.7652L16.5001 13.0602V17.0286ZM9.54755 17.9193C9.12568 18.8436 7.71474 20.9999 3.75005 20.9999C3.55114 20.9999 3.36037 20.9209 3.21972 20.7802C3.07907 20.6396 3.00005 20.4488 3.00005 20.2499C3.00005 16.2852 5.1563 14.8743 6.08068 14.4515C6.17031 14.4106 6.26711 14.3878 6.36555 14.3843C6.464 14.3808 6.56216 14.3968 6.65444 14.4313C6.74672 14.4657 6.8313 14.518 6.90337 14.5852C6.97543 14.6524 7.03355 14.7331 7.07443 14.8227C7.1153 14.9123 7.13812 15.0091 7.14159 15.1076C7.14505 15.206 7.12909 15.3042 7.09461 15.3965C7.06014 15.4887 7.00783 15.5733 6.94067 15.6454C6.8735 15.7175 6.79281 15.7756 6.70318 15.8165C6.10037 16.0911 4.77005 16.9752 4.53568 19.4643C7.02474 19.2299 7.91068 17.8996 8.18349 17.2968C8.22436 17.2071 8.28249 17.1264 8.35455 17.0593C8.42661 16.9921 8.5112 16.9398 8.60348 16.9053C8.69576 16.8709 8.79392 16.8549 8.89237 16.8584C8.99081 16.8618 9.08761 16.8846 9.17724 16.9255C9.26687 16.9664 9.34757 17.0245 9.41473 17.0966C9.48189 17.1686 9.5342 17.2532 9.56868 17.3455C9.60315 17.4378 9.61911 17.5359 9.61565 17.6344C9.61219 17.7328 9.58936 17.8296 9.54849 17.9193H9.54755Z" fill="white"/>
</svg>