<svg width="24" height="24" viewBox="0 0 24 24" fill="none" xmlns="http://www.w3.org/2000/svg">
<path d="M14.0306 12.9694C13.9609 12.8996 13.8782 12.8443 13.7871 12.8066C13.6961 12.7688 13.5985 12.7494 13.4999 12.7494C13.4014 12.7494 13.3038 12.7688 13.2127 12.8066C13.1217 12.8443 13.039 12.8996 12.9693 12.9694L11.2499 14.6897L9.31024 12.75L11.0306 11.0306C11.1713 10.8899 11.2503 10.699 11.2503 10.5C11.2503 10.301 11.1713 10.1101 11.0306 9.96935C10.8898 9.82862 10.699 9.74956 10.4999 9.74956C10.3009 9.74956 10.11 9.82862 9.9693 9.96935L8.24993 11.6897L6.53055 9.96935C6.38982 9.82862 6.19895 9.74956 5.99993 9.74956C5.80091 9.74956 5.61003 9.82862 5.4693 9.96935C5.32857 10.1101 5.24951 10.301 5.24951 10.5C5.24951 10.699 5.32857 10.8899 5.4693 11.0306L6.06462 11.625L3.87837 13.8103C3.59972 14.0889 3.37868 14.4196 3.22787 14.7836C3.07706 15.1477 2.99944 15.5378 2.99944 15.9319C2.99944 16.3259 3.07706 16.716 3.22787 17.0801C3.37868 17.4441 3.59972 17.7748 3.87837 18.0534L4.38274 18.5569L1.7193 21.2194C1.64962 21.289 1.59435 21.3718 1.55663 21.4628C1.51892 21.5539 1.49951 21.6514 1.49951 21.75C1.49951 21.8485 1.51892 21.9461 1.55663 22.0372C1.59435 22.1282 1.64962 22.2109 1.7193 22.2806C1.86003 22.4213 2.05091 22.5004 2.24993 22.5004C2.34847 22.5004 2.44606 22.481 2.5371 22.4433C2.62815 22.4056 2.71087 22.3503 2.78055 22.2806L5.44305 19.6172L5.94649 20.1215C6.22508 20.4002 6.55582 20.6212 6.91984 20.772C7.28387 20.9228 7.67403 21.0005 8.06805 21.0005C8.46208 21.0005 8.85224 20.9228 9.21626 20.772C9.58028 20.6212 9.91103 20.4002 10.1896 20.1215L12.3749 17.9353L12.9693 18.5306C13.039 18.6003 13.1217 18.6556 13.2128 18.6933C13.3038 18.731 13.4014 18.7504 13.4999 18.7504C13.5985 18.7504 13.6961 18.731 13.7871 18.6933C13.8781 18.6556 13.9609 18.6003 14.0306 18.5306C14.1002 18.4609 14.1555 18.3782 14.1932 18.2872C14.2309 18.1961 14.2503 18.0985 14.2503 18C14.2503 17.9014 14.2309 17.8039 14.1932 17.7128C14.1555 17.6218 14.1002 17.539 14.0306 17.4694L12.3102 15.75L14.0306 14.0306C14.1003 13.9609 14.1556 13.8782 14.1933 13.7872C14.2311 13.6961 14.2505 13.5985 14.2505 13.5C14.2505 13.4014 14.2311 13.3038 14.1933 13.2128C14.1556 13.1217 14.1003 13.039 14.0306 12.9694ZM9.12837 19.0631C8.84709 19.3442 8.46571 19.5021 8.06805 19.5021C7.6704 19.5021 7.28902 19.3442 7.00774 19.0631L4.93962 16.9922C4.65852 16.7109 4.50062 16.3295 4.50062 15.9319C4.50062 15.5342 4.65852 15.1528 4.93962 14.8715L7.12493 12.6853L11.3146 16.875L9.12837 19.0631ZM22.2806 1.71935C22.2109 1.64962 22.1282 1.5943 22.0371 1.55656C21.9461 1.51882 21.8485 1.49939 21.7499 1.49939C21.6514 1.49939 21.5538 1.51882 21.4627 1.55656C21.3717 1.5943 21.289 1.64962 21.2193 1.71935L18.5568 4.38279L18.0534 3.87842C17.4901 3.31681 16.7272 3.00143 15.9318 3.00143C15.1364 3.00143 14.3735 3.31681 13.8102 3.87842L11.6249 6.06467L11.0306 5.46935C10.8898 5.32862 10.699 5.24956 10.4999 5.24956C10.3009 5.24956 10.11 5.32862 9.9693 5.46935C9.82857 5.61009 9.74951 5.80096 9.74951 5.99998C9.74951 6.199 9.82857 6.38987 9.9693 6.53061L17.4693 14.0306C17.539 14.1003 17.6217 14.1556 17.7128 14.1933C17.8038 14.231 17.9014 14.2504 17.9999 14.2504C18.0985 14.2504 18.1961 14.231 18.2871 14.1933C18.3781 14.1556 18.4609 14.1003 18.5306 14.0306C18.6002 13.9609 18.6555 13.8782 18.6932 13.7872C18.7309 13.6961 18.7503 13.5985 18.7503 13.5C18.7503 13.4014 18.7309 13.3039 18.6932 13.2128C18.6555 13.1218 18.6002 13.039 18.5306 12.9694L17.9352 12.375L20.1215 10.1897C20.4001 9.91108 20.6212 9.58033 20.772 9.21631C20.9228 8.85229 21.0004 8.46213 21.0004 8.0681C21.0004 7.67408 20.9228 7.28392 20.772 6.9199C20.6212 6.55587 20.4001 6.22513 20.1215 5.94654L19.6171 5.4431L22.2806 2.7806C22.3503 2.71095 22.4056 2.62823 22.4433 2.53718C22.4811 2.44614 22.5005 2.34854 22.5005 2.24998C22.5005 2.15142 22.4811 2.05382 22.4433 1.96277C22.4056 1.87173 22.3503 1.78901 22.2806 1.71935ZM19.0602 9.1256L16.8749 11.3147L12.6852 7.12498L14.8715 4.93967C15.1528 4.65858 15.5342 4.50067 15.9318 4.50067C16.3295 4.50067 16.7108 4.65858 16.9921 4.93967L19.0602 7.00217C19.2003 7.14155 19.3114 7.30721 19.3872 7.48966C19.463 7.6721 19.5021 7.86772 19.5021 8.06529C19.5021 8.26286 19.463 8.45849 19.3872 8.64093C19.3114 8.82337 19.2003 8.98904 19.0602 9.12842V9.1256Z" fill="white"/>
</svg>